<svg width="71" height="21" viewBox="0 0 71 21" fill="none" xmlns="http://www.w3.org/2000/svg">
<g clip-path="url(#clip0_6_244)">
<path d="M12.0681 0.894989H14.3812V5.68225H12.0681V0.894989Z" fill="black"/>
<path d="M14.0301 0.894989H15.5041V5.68225H14.0301V0.894989Z" fill="black"/>
<path d="M17.4801 0.894989H19.6676V5.68225H17.4801V0.894989Z" fill="black"/>
<path d="M12.5939 0.894989C12.7584 0.894989 12.9283 0.900416 13.1036 0.911271V5.68225H12.0681L12.0681 5.68548C11.9802 5.68106 11.8939 5.67885 11.8091 5.67885C10.8373 5.67885 9.9902 5.928 9.26763 6.42632C8.56999 6.92464 7.99692 7.63474 7.54844 8.55663C7.12487 9.45361 6.80096 10.525 6.57671 11.7708V20.89H1.86761V1.34348H5.82924L5.75449 8.07077H6.42722C6.65146 6.47615 7.00029 5.15561 7.47369 4.10914C7.94709 3.03776 8.60736 2.24045 9.4545 1.71721C10.3016 1.16906 11.3481 0.894989 12.5939 0.894989Z" fill="black"/>
<path d="M17.0121 18.6692V16.9065H19.6678V18.6692H17.0121Z" fill="black"/>
<path d="M17.0121 20.5729V19.7871H19.6678V20.5729H17.0121Z" fill="black"/>
<path fill-rule="evenodd" clip-rule="evenodd" d="M9.34395 10.1499C9.16936 10.5303 9.01285 10.9415 8.87441 11.3836H11.5612C11.6701 11.1446 11.8051 10.9361 11.9662 10.7581C12.2799 10.3948 12.6515 10.1305 13.0809 9.96536C13.5268 9.80021 13.9892 9.71764 14.4682 9.71764C15.2609 9.71764 15.8307 9.90756 16.1775 10.2874C16.5408 10.6507 16.7225 11.0884 16.7225 11.6003C16.7225 11.9472 16.6399 12.2114 16.4747 12.3931C16.3096 12.5582 16.0453 12.6821 15.682 12.7646C15.3352 12.8472 14.881 12.9298 14.3195 13.0124C13.2956 13.161 12.4038 13.3427 11.6441 13.5574C10.8844 13.7555 10.2486 14.0115 9.73663 14.3253C9.22467 14.6226 8.83656 15.0107 8.57232 15.4896C8.3246 15.9686 8.20074 16.5466 8.20074 17.2237C8.20074 18.0329 8.35763 18.71 8.67141 19.255C9.00171 19.8 9.44762 20.2129 10.0091 20.4937C10.5706 20.7579 11.2065 20.89 11.9166 20.89C12.7258 20.89 13.436 20.7414 14.047 20.4441C14.6746 20.1303 15.2031 19.7175 15.6325 19.2055C16.0619 18.677 16.3922 18.099 16.6234 17.4714H17.0197C17.0198 17.4723 17.0198 17.4732 17.0199 17.4742H19.6676V11.3277L19.651 10.952C19.5567 10.4823 19.4228 10.0626 19.2493 9.69286C18.8694 8.86712 18.2914 8.26432 17.5152 7.88447C16.739 7.48812 15.7481 7.28994 14.5425 7.28994C13.7498 7.28994 13.0231 7.37251 12.3625 7.53766C11.8026 7.67763 11.2962 7.88284 10.8431 8.15329C10.2398 8.64705 9.74007 9.31258 9.34395 10.1499ZM14.1461 18.4128C13.8158 18.5284 13.4855 18.5862 13.1552 18.5862C12.5937 18.5862 12.1313 18.4293 11.768 18.1155C11.4046 17.8017 11.223 17.3641 11.223 16.8026C11.223 16.3567 11.3303 16.0098 11.545 15.7621C11.7597 15.4979 12.0487 15.2997 12.4121 15.1676C12.7754 15.0189 13.18 14.9033 13.6259 14.8208C14.0883 14.7217 14.5425 14.6391 14.9884 14.573C15.4508 14.507 15.8885 14.4079 16.3013 14.2758C16.4637 14.2238 16.6158 14.1642 16.7577 14.097L16.7968 15.8364C16.5986 16.2989 16.3591 16.7035 16.0784 17.0503C15.7976 17.3806 15.4921 17.6613 15.1618 17.8925C14.8315 18.1238 14.4929 18.2972 14.1461 18.4128Z" fill="black"/>
</g>
<path d="M29.488 9.5387V0.894989H33.1681C33.6483 0.894989 34.0849 0.934279 34.4778 1.01286C34.8707 1.08271 35.2156 1.19184 35.5124 1.34027C35.818 1.47997 36.0756 1.65459 36.2851 1.86413C36.4947 2.06495 36.6518 2.30068 36.7566 2.57135C36.8614 2.83328 36.9137 3.12577 36.9137 3.44881C36.9137 3.7544 36.8657 4.02943 36.7697 4.2739C36.6736 4.51836 36.5252 4.73227 36.3244 4.91563C36.1323 5.09898 35.8879 5.2474 35.591 5.36091C35.2941 5.47441 34.9493 5.55736 34.5564 5.60974V5.80619C35.054 5.85858 35.4382 5.97208 35.7089 6.1467C35.9883 6.31259 36.2022 6.53523 36.3506 6.81462C36.499 7.09402 36.63 7.43016 36.7435 7.82306L37.2412 9.5387H34.8969L34.5171 7.95402C34.4385 7.60478 34.3294 7.33412 34.1897 7.14204C34.0587 6.94995 33.8884 6.81899 33.6789 6.74914C33.4694 6.67056 33.2074 6.63127 32.8931 6.63127H31.5966V9.5387H29.488ZM31.5966 5.07278H33.0241C33.5567 5.07278 33.9714 4.96801 34.2682 4.75847C34.5651 4.54892 34.7135 4.22151 34.7135 3.77623C34.7135 3.33968 34.5782 3.01663 34.3075 2.80708C34.0369 2.59754 33.6265 2.49277 33.0765 2.49277H31.5966V5.07278Z" fill="black"/>
<path d="M37.9808 9.5387V0.894989H40.1286V9.5387H37.9808Z" fill="black"/>
<path d="M42.9671 7.16823V5.54426H44.8923C45.4598 5.54426 45.8833 5.42639 46.1627 5.19065C46.4421 4.95492 46.5818 4.55765 46.5818 3.99887C46.5818 3.50993 46.4508 3.13886 46.1889 2.88566C45.9357 2.63246 45.5297 2.50586 44.9709 2.50586H42.9671V0.894989H45.0364C45.5951 0.894989 46.0972 0.960472 46.5425 1.09144C46.9965 1.2224 47.385 1.41885 47.7081 1.68078C48.0311 1.93398 48.2756 2.26139 48.4415 2.66302C48.6161 3.05592 48.7034 3.51866 48.7034 4.05125C48.7034 4.73227 48.5462 5.30416 48.2319 5.7669C47.9263 6.22964 47.468 6.57889 46.8568 6.81462C46.2543 7.05036 45.4991 7.16823 44.5911 7.16823H42.9671ZM41.4217 9.5387V0.894989H43.5303V9.5387H41.4217Z" fill="black"/>
<path d="M50.9739 7.16823V5.54426H52.8991C53.4666 5.54426 53.8901 5.42639 54.1695 5.19065C54.4488 4.95492 54.5885 4.55765 54.5885 3.99887C54.5885 3.50993 54.4576 3.13886 54.1956 2.88566C53.9424 2.63246 53.5365 2.50586 52.9777 2.50586H50.9739V0.894989H53.0432C53.6019 0.894989 54.104 0.960472 54.5493 1.09144C55.0033 1.2224 55.3918 1.41885 55.7148 1.68078C56.0379 1.93398 56.2824 2.26139 56.4483 2.66302C56.6229 3.05592 56.7102 3.51866 56.7102 4.05125C56.7102 4.73227 56.553 5.30416 56.2387 5.7669C55.9331 6.22964 55.4747 6.57889 54.8636 6.81462C54.2611 7.05036 53.5059 7.16823 52.5979 7.16823H50.9739ZM49.4285 9.5387V0.894989H51.5371V9.5387H49.4285Z" fill="black"/>
<path d="M57.4353 9.5387V0.894989H59.5438V9.5387H57.4353ZM57.8151 9.5387V7.77067H63.0668V9.5387H57.8151Z" fill="black"/>
<path d="M63.5748 9.5387V0.894989H65.6965V9.5387H63.5748ZM65.1071 9.5387V7.83615H70.4374V9.5387H65.1071ZM65.1071 5.95025V4.41796H69.7695V5.95025H65.1071ZM65.1071 2.58444V0.894989H70.3981V2.58444H65.1071Z" fill="black"/>
<path d="M28.7677 20.4525L31.7013 11.8088H34.7921L37.7257 20.4525H35.4207L33.3515 13.4589H33.1419L31.0727 20.4525H28.7677ZM30.5095 18.8285V17.4141H36.2982V18.8285H30.5095Z" fill="black"/>
<path d="M38.2878 20.4525V11.8088H41.9679C42.4481 11.8088 42.8846 11.8481 43.2775 11.9266C43.6704 11.9965 44.0153 12.1056 44.3122 12.2541C44.6178 12.3937 44.8753 12.5684 45.0849 12.7779C45.2944 12.9787 45.4516 13.2145 45.5563 13.4851C45.6611 13.7471 45.7135 14.0395 45.7135 14.3626C45.7135 14.6682 45.6655 14.9432 45.5694 15.1877C45.4734 15.4321 45.325 15.6461 45.1241 15.8294C44.9321 16.0128 44.6876 16.1612 44.3907 16.2747C44.0939 16.3882 43.749 16.4711 43.3561 16.5235V16.72C43.8538 16.7724 44.238 16.8859 44.5086 17.0605C44.788 17.2264 45.0019 17.449 45.1503 17.7284C45.2988 18.0078 45.4297 18.3439 45.5432 18.7368L46.0409 20.4525H43.6966L43.3168 18.8678C43.2382 18.5186 43.1291 18.2479 42.9894 18.0558C42.8584 17.8637 42.6882 17.7328 42.4786 17.6629C42.2691 17.5843 42.0072 17.5451 41.6929 17.5451H40.3963V20.4525H38.2878ZM40.3963 15.9866H41.8238C42.3564 15.9866 42.7711 15.8818 43.068 15.6722C43.3648 15.4627 43.5133 15.1353 43.5133 14.69C43.5133 14.2535 43.3779 13.9304 43.1073 13.7209C42.8366 13.5113 42.4263 13.4065 41.8762 13.4065H40.3963V15.9866Z" fill="black"/>
<path d="M48.601 20.4525V11.8088H50.7226V20.4525H48.601ZM46.0864 13.5637V11.8088H53.2633V13.5637H46.0864Z" fill="black"/>
<defs>
<clipPath id="clip0_6_244">
<rect width="20" height="19.995" fill="white" transform="translate(0.7677 0.894989)"/>
</clipPath>
</defs>
</svg>
