<svg width="21" height="20" viewBox="0 0 21 20" fill="none" xmlns="http://www.w3.org/2000/svg">
<g clip-path="url(#clip0_6_246)">
<path d="M12.0681 0H14.3812V4.78726H12.0681V0Z" fill="black"/>
<path d="M14.0301 0H15.5041V4.78726H14.0301V0Z" fill="black"/>
<path d="M17.4801 0H19.6676V4.78726H17.4801V0Z" fill="black"/>
<path d="M12.5939 0C12.7584 0 12.9283 0.00542739 13.1036 0.0162822V4.78726H12.0681L12.0681 4.79049C11.9802 4.78607 11.8939 4.78386 11.8091 4.78386C10.8373 4.78386 9.9902 5.03302 9.26763 5.53133C8.56999 6.02965 7.99692 6.73976 7.54844 7.66164C7.12487 8.55862 6.80096 9.63 6.57671 10.8758V19.995H1.86761V0.448487H5.82924L5.75449 7.17578H6.42722C6.65146 5.58117 7.00029 4.26062 7.47369 3.21415C7.94709 2.14277 8.60736 1.34546 9.4545 0.822226C10.3016 0.274075 11.3481 0 12.5939 0Z" fill="black"/>
<path d="M17.0121 17.7742V16.0115H19.6678V17.7742H17.0121Z" fill="black"/>
<path d="M17.0121 19.6779V18.8921H19.6678V19.6779H17.0121Z" fill="black"/>
<path fill-rule="evenodd" clip-rule="evenodd" d="M9.34395 9.25489C9.16936 9.63527 9.01285 10.0465 8.87441 10.4886H11.5612C11.6701 10.2496 11.8051 10.0411 11.9662 9.86309C12.2799 9.49976 12.6515 9.23552 13.0809 9.07037C13.5268 8.90522 13.9892 8.82265 14.4682 8.82265C15.2609 8.82265 15.8307 9.01257 16.1775 9.39241C16.5408 9.75574 16.7225 10.1934 16.7225 10.7054C16.7225 11.0522 16.6399 11.3164 16.4747 11.4981C16.3096 11.6632 16.0453 11.7871 15.682 11.8697C15.3352 11.9522 14.881 12.0348 14.3195 12.1174C13.2956 12.266 12.4038 12.4477 11.6441 12.6624C10.8844 12.8606 10.2486 13.1165 9.73663 13.4303C9.22467 13.7276 8.83656 14.1157 8.57232 14.5946C8.3246 15.0736 8.20074 15.6516 8.20074 16.3287C8.20074 17.1379 8.35763 17.815 8.67141 18.36C9.00171 18.905 9.44762 19.3179 10.0091 19.5987C10.5706 19.8629 11.2065 19.995 11.9166 19.995C12.7258 19.995 13.436 19.8464 14.047 19.5491C14.6746 19.2353 15.2031 18.8225 15.6325 18.3105C16.0619 17.782 16.3922 17.204 16.6234 16.5764H17.0197C17.0198 16.5773 17.0198 16.5783 17.0199 16.5792H19.6676V10.4328L19.651 10.0571C19.5567 9.58734 19.4228 9.16761 19.2493 8.79788C18.8694 7.97213 18.2914 7.36933 17.5152 6.98949C16.739 6.59313 15.7481 6.39495 14.5425 6.39495C13.7498 6.39495 13.0231 6.47752 12.3625 6.64267C11.8026 6.78264 11.2962 6.98785 10.8431 7.2583C10.2398 7.75206 9.74007 8.41759 9.34395 9.25489ZM14.1461 17.5178C13.8158 17.6334 13.4855 17.6912 13.1552 17.6912C12.5937 17.6912 12.1313 17.5343 11.768 17.2205C11.4046 16.9067 11.223 16.4691 11.223 15.9076C11.223 15.4617 11.3303 15.1149 11.545 14.8671C11.7597 14.6029 12.0487 14.4047 12.4121 14.2726C12.7754 14.124 13.18 14.0083 13.6259 13.9258C14.0883 13.8267 14.5425 13.7441 14.9884 13.678C15.4508 13.612 15.8885 13.5129 16.3013 13.3808C16.4637 13.3288 16.6158 13.2692 16.7577 13.202L16.7968 14.9414C16.5986 15.4039 16.3591 15.8085 16.0784 16.1553C15.7976 16.4856 15.4921 16.7663 15.1618 16.9976C14.8315 17.2288 14.4929 17.4022 14.1461 17.5178Z" fill="black"/>
</g>
<defs>
<clipPath id="clip0_6_246">
<rect width="20" height="19.995" fill="white" transform="translate(0.7677)"/>
</clipPath>
</defs>
</svg>
