<svg width="40" height="40" viewBox="0 0 40 40" fill="none" xmlns="http://www.w3.org/2000/svg">
<mask id="path-1-inside-1_111_347" fill="white">
<path d="M0 4C0 1.79086 1.79086 0 4 0H36C38.2091 0 40 1.79086 40 4V36C40 38.2091 38.2091 40 36 40H4C1.79086 40 0 38.2091 0 36V4Z"/>
</mask>
<path d="M0 4C0 1.79086 1.79086 0 4 0H36C38.2091 0 40 1.79086 40 4V36C40 38.2091 38.2091 40 36 40H4C1.79086 40 0 38.2091 0 36V4Z" fill="black"/>
<path d="M4 1H36V-1H4V1ZM39 4V36H41V4H39ZM36 39H4V41H36V39ZM1 36V4H-1V36H1ZM4 39C2.34315 39 1 37.6569 1 36H-1C-1 38.7614 1.23858 41 4 41V39ZM39 36C39 37.6569 37.6569 39 36 39V41C38.7614 41 41 38.7614 41 36H39ZM36 1C37.6569 1 39 2.34315 39 4H41C41 1.23858 38.7614 -1 36 -1V1ZM4 -1C1.23858 -1 -1 1.23858 -1 4H1C1 2.34315 2.34315 1 4 1V-1Z" fill="black" mask="url(#path-1-inside-1_111_347)"/>
<mask id="path-3-inside-2_111_347" fill="white">
<path d="M0 4C0 1.79086 1.79086 0 4 0H36C38.2091 0 40 1.79086 40 4V32C40 34.2091 38.2091 36 36 36H4C1.79086 36 0 34.2091 0 32V4Z"/>
</mask>
<path d="M0 4C0 1.79086 1.79086 0 4 0H36C38.2091 0 40 1.79086 40 4V32C40 34.2091 38.2091 36 36 36H4C1.79086 36 0 34.2091 0 32V4Z" fill="white"/>
<path d="M4 1H36V-1H4V1ZM39 4V32H41V4H39ZM36 35H4V37H36V35ZM1 32V4H-1V32H1ZM4 35C2.34315 35 1 33.6569 1 32H-1C-1 34.7614 1.23858 37 4 37V35ZM39 32C39 33.6569 37.6569 35 36 35V37C38.7614 37 41 34.7614 41 32H39ZM36 1C37.6569 1 39 2.34315 39 4H41C41 1.23858 38.7614 -1 36 -1V1ZM4 -1C1.23858 -1 -1 1.23858 -1 4H1C1 2.34315 2.34315 1 4 1V-1Z" fill="black" mask="url(#path-3-inside-2_111_347)"/>
<path d="M10 14.3772C10 14.0269 10 13.8517 10.0146 13.7042C10.1556 12.2813 11.2813 11.1556 12.7042 11.0146C12.8517 11 13.0364 11 13.4056 11C13.5479 11 13.619 11 13.6794 10.9963C14.4506 10.9496 15.126 10.4629 15.4141 9.746C15.4367 9.68986 15.4578 9.62657 15.5 9.5C15.5422 9.37343 15.5633 9.31014 15.5859 9.254C15.874 8.53712 16.5494 8.05037 17.3206 8.00366C17.381 8 17.4477 8 17.5811 8H22.4189C22.5523 8 22.619 8 22.6794 8.00366C23.4506 8.05037 24.126 8.53712 24.4141 9.254C24.4367 9.31014 24.4578 9.37343 24.5 9.5C24.5422 9.62657 24.5633 9.68986 24.5859 9.746C24.874 10.4629 25.5494 10.9496 26.3206 10.9963C26.381 11 26.4521 11 26.5944 11C26.9636 11 27.1483 11 27.2958 11.0146C28.7187 11.1556 29.8444 12.2813 29.9854 13.7042C30 13.8517 30 14.0269 30 14.3772V22.2C30 23.8802 30 24.7202 29.673 25.362C29.3854 25.9265 28.9265 26.3854 28.362 26.673C27.7202 27 26.8802 27 25.2 27H14.8C13.1198 27 12.2798 27 11.638 26.673C11.0735 26.3854 10.6146 25.9265 10.327 25.362C10 24.7202 10 23.8802 10 22.2V14.3772Z" stroke="black" stroke-width="1.25" stroke-linecap="round" stroke-linejoin="round"/>
<path d="M20 22.5C22.2091 22.5 24 20.7091 24 18.5C24 16.2909 22.2091 14.5 20 14.5C17.7909 14.5 16 16.2909 16 18.5C16 20.7091 17.7909 22.5 20 22.5Z" stroke="black" stroke-width="1.25" stroke-linecap="round" stroke-linejoin="round"/>
</svg>
