<svg width="40" height="40" viewBox="0 0 40 40" fill="none" xmlns="http://www.w3.org/2000/svg">
<mask id="path-1-inside-1_107_310" fill="white">
<path d="M0 4C0 1.79086 1.79086 0 4 0H36C38.2091 0 40 1.79086 40 4V36C40 38.2091 38.2091 40 36 40H4C1.79086 40 0 38.2091 0 36V4Z"/>
</mask>
<path d="M0 4C0 1.79086 1.79086 0 4 0H36C38.2091 0 40 1.79086 40 4V36C40 38.2091 38.2091 40 36 40H4C1.79086 40 0 38.2091 0 36V4Z" fill="black"/>
<path d="M4 1H36V-1H4V1ZM39 4V36H41V4H39ZM36 39H4V41H36V39ZM1 36V4H-1V36H1ZM4 39C2.34315 39 1 37.6569 1 36H-1C-1 38.7614 1.23858 41 4 41V39ZM39 36C39 37.6569 37.6569 39 36 39V41C38.7614 41 41 38.7614 41 36H39ZM36 1C37.6569 1 39 2.34315 39 4H41C41 1.23858 38.7614 -1 36 -1V1ZM4 -1C1.23858 -1 -1 1.23858 -1 4H1C1 2.34315 2.34315 1 4 1V-1Z" fill="black" mask="url(#path-1-inside-1_107_310)"/>
<mask id="path-3-inside-2_107_310" fill="white">
<path d="M0 4C0 1.79086 1.79086 0 4 0H36C38.2091 0 40 1.79086 40 4V32C40 34.2091 38.2091 36 36 36H4C1.79086 36 0 34.2091 0 32V4Z"/>
</mask>
<path d="M0 4C0 1.79086 1.79086 0 4 0H36C38.2091 0 40 1.79086 40 4V32C40 34.2091 38.2091 36 36 36H4C1.79086 36 0 34.2091 0 32V4Z" fill="white"/>
<path d="M4 1H36V-1H4V1ZM39 4V32H41V4H39ZM36 35H4V37H36V35ZM1 32V4H-1V32H1ZM4 35C2.34315 35 1 33.6569 1 32H-1C-1 34.7614 1.23858 37 4 37V35ZM39 32C39 33.6569 37.6569 35 36 35V37C38.7614 37 41 34.7614 41 32H39ZM36 1C37.6569 1 39 2.34315 39 4H41C41 1.23858 38.7614 -1 36 -1V1ZM4 -1C1.23858 -1 -1 1.23858 -1 4H1C1 2.34315 2.34315 1 4 1V-1Z" fill="black" mask="url(#path-3-inside-2_107_310)"/>
<circle cx="20" cy="18" r="11.25" fill="white" stroke="black" stroke-width="1.5"/>
</svg>
